HIERARCHY
ROOT Hips
{
	OFFSET	0	960.822	40.4592
	CHANNELS 6  Xposition Yposition Zposition Xrotation Yrotation Zrotation
	JOINT Spine
	{
		OFFSET	0	68.5747	34.724
		CHANNELS 3  Xrotation Yrotation Zrotation
		JOINT Spine1
		{
			OFFSET	0	117.377	-31.4402
			CHANNELS 3  Xrotation Yrotation Zrotation
			JOINT Spine2
			{
				OFFSET	0	88.9759	9.53687
				CHANNELS 3  Xrotation Yrotation Zrotation
				JOINT Spine3
				{
					OFFSET	0	106.478	6.49765
					CHANNELS 3  Xrotation Yrotation Zrotation
					JOINT Spine4
					{
						OFFSET	0	157.62	-11.9473
						CHANNELS 3  Xrotation Yrotation Zrotation
						JOINT Neck
						{
							OFFSET	0	75.247	-52.7148
							CHANNELS 3  Xrotation Yrotation Zrotation
							JOINT Head
							{
								OFFSET	0	90.3383	-27.0386
								CHANNELS 3  Xrotation Yrotation Zrotation
								End Site
								{
									OFFSET	0	188.432	-9.11767
								}
							}
						}
					}
					JOINT LeftShoulder
					{
						OFFSET	-45.274	191.576	-86.1463
						CHANNELS 3  Xrotation Yrotation Zrotation
						JOINT LeftArm
						{
							OFFSET	-121.82	-27.0386	34.6893
							CHANNELS 3  Xrotation Yrotation Zrotation
							JOINT LeftForeArm
							{
								OFFSET	-299.677	0	0
								CHANNELS 3  Xrotation Yrotation Zrotation
								JOINT LeftHand
								{
									OFFSET	-259.438	0	0
									CHANNELS 3  Xrotation Yrotation Zrotation
									JOINT LeftHandThumb1
									{
										OFFSET	-18.2409	-10.153	-26.4996
										CHANNELS 3  Xrotation Yrotation Zrotation
										JOINT LeftHandThumb2
										{
											OFFSET	-40.6108	-20.3054	0
											CHANNELS 3  Xrotation Yrotation Zrotation
											JOINT LeftHandThumb3
											{
												OFFSET	-35.5189	0	0
												CHANNELS 3  Xrotation Yrotation Zrotation
												End Site
												{
													OFFSET	-35.5189	0	0
												}
											}
										}
									}
									JOINT LeftHandIndex1
									{
										OFFSET	-99.4651	0	-18.5112
										CHANNELS 3  Xrotation Yrotation Zrotation
										JOINT LeftHandIndex2
										{
											OFFSET	-44.8257	0	0
											CHANNELS 3  Xrotation Yrotation Zrotation
											JOINT LeftHandIndex3
											{
												OFFSET	-29.8838	0	0
												CHANNELS 3  Xrotation Yrotation Zrotation
												End Site
												{
													OFFSET	-19.9225	0	0
												}
											}
										}
									}
									JOINT LeftHandMiddle1
									{
										OFFSET	-102.511	0	-1.11702
										CHANNELS 3  Xrotation Yrotation Zrotation
										JOINT LeftHandMiddle2
										{
											OFFSET	-46.6198	0	0
											CHANNELS 3  Xrotation Yrotation Zrotation
											JOINT LeftHandMiddle3
											{
												OFFSET	-34.7169	0	0
												CHANNELS 3  Xrotation Yrotation Zrotation
												End Site
												{
													OFFSET	-19.8382	0	0
												}
											}
										}
									}
									JOINT LeftHandRing1
									{
										OFFSET	-94.3886	0	16.2772
										CHANNELS 3  Xrotation Yrotation Zrotation
										JOINT LeftHandRing2
										{
											OFFSET	-44.4482	0	0
											CHANNELS 3  Xrotation Yrotation Zrotation
											JOINT LeftHandRing3
											{
												OFFSET	-34.5708	0	0
												CHANNELS 3  Xrotation Yrotation Zrotation
												End Site
												{
													OFFSET	-19.7548	0	0
												}
											}
										}
									}
									JOINT LeftHandPinky1
									{
										OFFSET	-89.3121	0	33.6713
										CHANNELS 3  Xrotation Yrotation Zrotation
										JOINT LeftHandPinky2
										{
											OFFSET	-39.3423	0	0
											CHANNELS 3  Xrotation Yrotation Zrotation
											JOINT LeftHandPinky3
											{
												OFFSET	-19.6711	0	0
												CHANNELS 3  Xrotation Yrotation Zrotation
												End Site
												{
													OFFSET	-19.6711	0	0
												}
											}
										}
									}
									End Site
									{
										OFFSET	-82.4403	0	-0.000375748
									}
								}
							}
						}
					}
					JOINT RightShoulder
					{
						OFFSET	45.274	191.576	-86.1463
						CHANNELS 3  Xrotation Yrotation Zrotation
						JOINT RightArm
						{
							OFFSET	121.82	-27.0386	34.6893
							CHANNELS 3  Xrotation Yrotation Zrotation
							JOINT RightForeArm
							{
								OFFSET	299.677	0	0
								CHANNELS 3  Xrotation Yrotation Zrotation
								JOINT RightHand
								{
									OFFSET	259.438	0	0
									CHANNELS 3  Xrotation Yrotation Zrotation
									JOINT RightHandThumb1
									{
										OFFSET	18.2409	-10.153	-26.4996
										CHANNELS 3  Xrotation Yrotation Zrotation
										JOINT RightHandThumb2
										{
											OFFSET	40.6108	-20.3054	0
											CHANNELS 3  Xrotation Yrotation Zrotation
											JOINT RightHandThumb3
											{
												OFFSET	35.5189	0	0
												CHANNELS 3  Xrotation Yrotation Zrotation
												End Site
												{
													OFFSET	35.5189	0	0
												}
											}
										}
									}
									JOINT RightHandIndex1
									{
										OFFSET	99.4651	0	-18.5112
										CHANNELS 3  Xrotation Yrotation Zrotation
										JOINT RightHandIndex2
										{
											OFFSET	44.8257	0	0
											CHANNELS 3  Xrotation Yrotation Zrotation
											JOINT RightHandIndex3
											{
												OFFSET	29.8838	0	0
												CHANNELS 3  Xrotation Yrotation Zrotation
												End Site
												{
													OFFSET	19.9225	0	0
												}
											}
										}
									}
									JOINT RightHandMiddle1
									{
										OFFSET	102.511	0	-1.11702
										CHANNELS 3  Xrotation Yrotation Zrotation
										JOINT RightHandMiddle2
										{
											OFFSET	46.6198	0	0
											CHANNELS 3  Xrotation Yrotation Zrotation
											JOINT RightHandMiddle3
											{
												OFFSET	34.7169	0	0
												CHANNELS 3  Xrotation Yrotation Zrotation
												End Site
												{
													OFFSET	19.8382	0	0
												}
											}
										}
									}
									JOINT RightHandRing1
									{
										OFFSET	94.3886	0	16.2772
										CHANNELS 3  Xrotation Yrotation Zrotation
										JOINT RightHandRing2
										{
											OFFSET	44.4482	0	0
											CHANNELS 3  Xrotation Yrotation Zrotation
											JOINT RightHandRing3
											{
												OFFSET	34.5708	0	0
												CHANNELS 3  Xrotation Yrotation Zrotation
												End Site
												{
													OFFSET	19.7548	0	0
												}
											}
										}
									}
									JOINT RightHandPinky1
									{
										OFFSET	89.3121	0	33.6713
										CHANNELS 3  Xrotation Yrotation Zrotation
										JOINT RightHandPinky2
										{
											OFFSET	39.3423	0	0
											CHANNELS 3  Xrotation Yrotation Zrotation
											JOINT RightHandPinky3
											{
												OFFSET	19.6711	0	0
												CHANNELS 3  Xrotation Yrotation Zrotation
												End Site
												{
													OFFSET	19.6711	0	0
												}
											}
										}
									}
									End Site
									{
										OFFSET	82.4403	0	-0.000375748
									}
								}
							}
						}
					}
				}
			}
		}
	}
	JOINT LeftUpLeg
	{
		OFFSET	-95.5888	-34.2873	-17.362
		CHANNELS 3  Xrotation Yrotation Zrotation
		JOINT LeftLeg
		{
			OFFSET	0	-432.733	0
			CHANNELS 3  Xrotation Yrotation Zrotation
			JOINT LeftFoot
			{
				OFFSET	0	-422.4	0
				CHANNELS 3  Xrotation Yrotation Zrotation
				JOINT LeftToeBase
				{
					OFFSET	2.76978	-39.1501	-139.32
					CHANNELS 3  Xrotation Yrotation Zrotation
					End Site
					{
						OFFSET	1.10928	-13.3141	-83.0459
					}
				}
			}
		}
	}
	JOINT RightUpLeg
	{
		OFFSET	95.5888	-34.2873	-17.362
		CHANNELS 3  Xrotation Yrotation Zrotation
		JOINT RightLeg
		{
			OFFSET	0	-432.733	0
			CHANNELS 3  Xrotation Yrotation Zrotation
			JOINT RightFoot
			{
				OFFSET	0	-422.4	0
				CHANNELS 3  Xrotation Yrotation Zrotation
				JOINT RightToeBase
				{
					OFFSET	-2.76978	-39.1501	-139.32
					CHANNELS 3  Xrotation Yrotation Zrotation
					End Site
					{
						OFFSET	-1.10928	-13.3141	-83.0459
					}
				}
			}
		}
	}
}
MOTION
Frames: 9
Frame Time: 0.038462
 1425.99 557.1 1308.46 56.3409 -61.1267 23.5081 179.995 -179.94 -179.045 179.958 -179.88 -178.726 1.12733 -0.359793 1.59217 3.38503 -0.0599738 1.27371 172.039 -179.956 -179.685 157.675 -162.906 179.966 171.82 -146.545 174.778 0.951425 -9.5861 1.96777 138.438 -163.943 -118.275 144.738 -130.388 151.575 -0 17.574 -35.7429 29.3352 0.645745 15.9818 -0 11.9429 0 -0 5.3065 0 -0 -11.9997 53.7156 -0 0 32.1 -0 0 87.0264 -0 -5.44225 54.7872 -0 0 47.7518 -0 0 89.692 -0 17.4463 45.554 -0 0 47.2818 -0 0 89.9552 -0 13.1006 51.4113 -0 0 37.5023 -0 0 67.9547 176.542 -173.267 -173.761 19.5461 -18.9696 -7.34092 150.6 143.908 -161.663 -0 -14.4235 42.3039 43.8797 3.72197 -18.1121 -0 -17.2223 -0 -0 1.16954 0 -0 18.3603 -14.0578 -0 0 -36.5466 -0 0 -33.9621 -0 4.17752 -14.1708 -0 0 -28.2313 -0 0 -61.4555 -0 -11.1081 -19.2313 -0 0 -11.2417 -0 0 -56.4291 -0 -11.4439 -30.5937 -0 0 -5.30162 -0 0 8.07561 41.4484 16.0178 -25.5093 126.101 -176.869 174.571 135.682 179.105 -170.177 0.249695 0 0 67.8356 44.2597 -3.75703 126.506 155.02 160.834 129.72 -179.993 165.688 0.223821 0 0
 1426.88 558.464 1308.26 56.3862 -61.392 23.6175 179.989 -179.931 -179.097 179.919 -179.862 -178.797 1.09112 -0.412972 1.50422 3.30204 -0.0688372 1.20334 172.175 -179.959 -179.702 158.082 -163.161 179.652 172.024 -147.182 174.869 1.14741 -8.88813 2.3639 138.672 -164.102 -117.937 144.961 -130.253 151.747 -0 17.9921 -36.0574 29.7174 -0.135124 14.7314 -0 15.0464 0 -0 7.42724 0 -0 -11.7729 59.3138 -0 0 30.472 -0 0 82.6133 -0 -5.74434 57.8064 -0 0 51.4816 -0 0 88.5225 -0 17.4515 53.1165 -0 0 47.2091 -0 0 89.9754 -0 13.0383 53.5512 -0 0 38.525 -0 0 66.5772 176.898 -171.175 -174.551 18.9574 -19.5568 -7.57446 148.786 141.288 -159.293 -0 -14.3306 43.6192 42.7783 4.45086 -17.5758 -0 -12.6976 -0 -0 3.46372 0 -0 18.0913 -18.5958 -0 0 -35.0314 -0 0 -27.8259 -0 4.73802 -15.1074 -0 0 -25.2564 -0 0 -56.0683 -0 -11.1966 -15.6172 -0 0 -13.8813 -0 0 -56.5889 -0 -12.8062 -24.5004 -0 0 -7.38763 -0 0 4.65568 41.3729 16.161 -25.5518 126.059 -177.004 174.586 136.619 178.852 -170.047 0.252596 0 0 68.2631 44.2973 -4.11692 126.402 154.992 160.852 130.713 -179.993 165.686 0.226457 0 0
 1427.26 559.111 1307.31 56.5225 -61.9403 23.6496 179.985 -179.936 -179.144 179.889 -179.873 -178.859 1.0293 -0.381228 1.42666 3.14213 -0.0635451 1.1413 172.503 -179.963 -179.717 159.044 -163.634 179.569 172.452 -148.226 175.152 1.28392 -8.37096 2.63727 139.164 -163.995 -117.514 145.875 -130.214 152.607 -0 18.2035 -35.9603 30.222 -1.72173 12.4862 -0 20.0912 0 -0 9.75242 0 -0 -11.4659 63.6058 -0 0 32.2078 -0 0 81.0421 -0 -6.01379 58.9877 -0 0 58.2361 -0 0 86.8373 -0 17.32 58.3105 -0 0 47.3008 -0 0 89.9992 -0 13.023 56.2896 -0 0 39.1001 -0 0 63.9635 177.33 -168.503 -175.477 17.8574 -20.4363 -7.91901 145.963 138.145 -155.752 -0 -13.9362 45.0145 42.0877 7.99016 -16.9254 -0 -7.35021 -0 -0 6.20555 0 -0 17.6691 -25.8926 -0 0 -33.0784 -0 0 -20.3234 -0 5.39041 -21.7877 -0 0 -15.3333 -0 0 -40.9137 -0 -11.0361 -15.6093 -0 0 -13.3575 -0 0 -51.9256 -0 -14.2573 -23.3003 -0 0 -8.48902 -0 0 2.83818 41.4693 16.2958 -25.7237 125.808 -177.061 174.771 137.381 178.702 -169.913 0.254653 0 0 68.9929 44.3927 -4.43803 126.414 154.995 160.865 132.804 -179.996 165.679 0.231714 0 0
 1426.02 559.649 1304.05 56.8083 -63.0028 23.6376 179.985 -179.958 -179.196 179.891 -179.916 -178.928 0.961079 -0.252096 1.34055 2.94561 -0.0420201 1.07243 172.965 -179.967 -179.734 160.38 -164.184 179.512 173.011 -149.456 175.5 1.237 -8.33237 2.54024 139.84 -163.61 -116.737 147.556 -129.98 154.081 -0 18.0028 -35.1337 31.2438 -6.31388 9.93749 -0 29.7504 0 -0 13.362 0 -0 -11.1651 62.9672 -0 0 37.8942 -0 0 84.1173 -0 -6.061 57.2007 -0 0 62.5757 -0 0 83.7102 -0 17.0659 57.6329 -0 0 47.3505 -0 0 89.8788 -0 13.1072 58.4595 -0 0 37.8777 -0 0 59.3573 177.738 -166.15 -176.301 16.4881 -21.6494 -8.37483 141.803 134.526 -150.663 -0 -13.3371 46.1009 41.887 12.9972 -16.4424 -0 -3.05297 -0 -0 8.51693 0 -0 17.2274 -33.4949 -0 0 -31.3471 -0 0 -13.9146 -0 5.93502 -31.9072 -0 0 -4.56739 -0 0 -23.6931 -0 -10.6837 -19.3837 -0 0 -9.28821 -0 0 -42.9116 -0 -15.2563 -27.4428 -0 0 -8.91382 -0 0 2.33822 41.6044 16.4868 -26.0502 125.432 -176.87 175.219 137.679 178.85 -169.746 0.253009 0 0 69.7628 44.5333 -4.44959 126.515 155.022 160.845 136.082 179.999 165.674 0.238336 0 0
 1424.02 561.127 1299.1 57.089 -64.1879 23.5805 179.991 -179.986 -179.24 179.934 -179.971 -178.987 0.916948 -0.0860103 1.2664 2.7927 -0.0143363 1.01312 173.387 -179.971 -179.748 161.583 -164.57 179.505 173.484 -150.347 175.771 1.05478 -8.61015 2.16939 140.364 -163.171 -116.006 149.417 -129.715 155.667 -0 17.6061 -33.9551 32.5152 -13.5119 8.12594 -0 42.3115 0 -0 18.137 0 -0 -10.9467 57.0883 -0 0 43.6005 -0 0 88.1091 -0 -5.91363 52.9544 -0 0 59.4235 -0 0 77.4549 -0 16.8135 51.1392 -0 0 47.0228 -0 0 89.4363 -0 13.2478 56.3076 -0 0 36.2237 -0 0 55.1989 178.053 -164.669 -176.892 15.4396 -22.7604 -8.74387 137.97 131.964 -146.058 -0 -12.8113 46.7991 41.854 16.8866 -16.2054 -0 -0.610985 -0 -0 10.0287 0 -0 16.9337 -38.838 -0 0 -30.4052 -0 0 -10.0921 -0 6.30477 -40.2367 -0 0 0.787736 -0 0 -13.2684 -0 -10.3737 -23.6302 -0 0 -4.66372 -0 0 -34.1409 -0 -15.7286 -32.5482 -0 0 -9.4476 -0 0 1.85224 41.6663 16.7193 -26.43 125.304 -176.535 175.749 137.039 179.235 -169.531 0.24765 0 0 70.235 44.6852 -4.10287 126.648 155.058 160.794 139.113 179.991 165.673 0.243613 0 0
 1422.71 562.543 1295.71 57.1344 -64.8264 23.46 179.998 179.999 -179.264 179.989 179.998 -179.018 0.910024 0.00547667 1.22692 2.73848 0.000912854 0.981538 173.594 -179.973 -179.756 162.162 -164.713 179.499 173.702 -150.695 175.883 0.913869 -8.79589 1.8815 140.561 -162.968 -115.657 150.423 -129.568 156.505 -0 17.3666 -33.2627 33.4881 -19.3843 7.53159 -0 50.9164 0 -0 21.5402 0 -0 -10.8583 49.6677 -0 0 46.0687 -0 0 89.8262 -0 -5.76325 48.2349 -0 0 51.3939 -0 0 69.4233 -0 16.6918 44.3735 -0 0 46.339 -0 0 88.8007 -0 13.3418 50.2911 -0 0 35.5872 -0 0 53.6265 178.205 -164.117 -177.159 15.0596 -23.3308 -8.88355 136.23 130.984 -143.961 -0 -12.5532 47.1099 41.9186 18.6779 -16.1802 -0 0.303009 0 -0 10.8092 0 -0 16.912 -40.9186 -0 0 -30.5237 -0 0 -9.20763 -0 6.49611 -43.8651 -0 0 1.27381 -0 0 -10.7066 -0 -10.2726 -25.6587 -0 0 -2.37078 -0 0 -29.9068 -0 -15.8537 -35.2587 -0 0 -10.0177 -0 0 1.2493 41.6383 16.9024 -26.6829 125.555 -176.336 176.053 135.942 179.568 -169.289 0.239643 0 0 70.367 44.7697 -3.80907 126.726 155.078 160.753 140.498 179.986 165.674 0.245766 0 0
 1422.72 562.537 1295.81 56.911 -64.6886 23.2573 0.00292431 -0.00125786 0.741768 0.0203996 -0.00251556 0.989023 0.927177 -0.00754605 1.23628 2.76652 -0.00125778 0.989023 173.575 -179.972 -179.754 162.094 -164.701 179.482 173.678 -150.673 175.869 0.906976 -8.70646 1.86632 140.564 -163.043 -115.625 150.294 -129.524 156.373 -0 17.3973 -33.3724 33.8388 -21.1979 7.69909 -0 52.4898 0 -0 22.122 0 -0 -10.8724 45.4372 -0 0 45.9694 -0 0 90.0071 -0 -5.71249 45.6254 -0 0 45.3603 -0 0 63.8547 -0 16.7129 42.8408 -0 0 45.6457 -0 0 88.3754 -0 13.3445 45.956 -0 0 35.565 -0 0 53.7931 178.189 -164.178 -177.131 15.1958 -23.317 -8.82998 136.519 131.098 -144.273 -0 -12.5429 47.1061 42.1358 19.076 -16.3131 -0 0.448022 0 -0 11.0441 0 -0 17.091 -40.7037 -0 0 -30.9573 -0 0 -9.68014 -0 6.45791 -43.6622 -0 0 0.397359 -0 0 -12.0334 -0 -10.3475 -25.4664 -0 0 -2.61516 -0 0 -30.3249 -0 -15.8062 -35.4694 -0 0 -10.2643 -0 0 0.963721 41.6996 16.8958 -26.812 125.755 -176.352 176.05 135.13 179.793 -169.022 0.219391 0 0 70.31 44.759 -3.85059 126.725 155.079 160.747 140.318 179.987 165.673 0.245861 0 0
 1423.67 561.256 1298.33 56.7357 -64.2616 23.1105 0.00068977 -0.00798055 0.770295 0.00436342 -0.01596 1.02706 0.934524 -0.0478756 1.28383 2.79759 -0.00797998 1.02706 173.479 -179.971 -179.745 161.822 -164.64 179.573 173.573 -150.477 175.834 0.974456 -8.62898 2.00432 140.55 -163.185 -115.747 149.921 -129.607 156.069 -0 17.5676 -33.7119 33.2174 -18.0676 7.74478 -0 49.4166 0 -0 20.4476 0 -0 -10.8931 46.4515 -0 0 45.341 -0 0 89.9606 -0 -5.7112 46.2705 -0 0 44.9196 -0 0 63.9078 -0 16.7641 45.6394 -0 0 45.3363 -0 0 88.339 -0 13.2894 46.5306 -0 0 35.9162 -0 0 54.6457 178.086 -164.502 -176.951 15.3554 -23.0208 -8.74774 137.387 131.605 -145.352 -0 -12.7036 46.8829 42.1598 18.2781 -16.327 -0 0.0288118 0 -0 10.3341 0 -0 17.0025 -39.9397 -0 0 -29.3304 -0 0 -7.84106 -0 6.03461 -41.7246 -0 0 -0.0890683 -0 0 -13.5973 -0 -10.3606 -24.6223 -0 0 -3.63688 -0 0 -32.4213 -0 -15.6853 -34.0246 -0 0 -9.7823 -0 0 1.49747 42.0354 16.7022 -27.0216 125.512 -176.462 175.951 134.484 -179.925 -168.673 0.176199 0 0 70.1647 44.7358 -3.97396 126.67 155.067 160.757 139.923 179.993 165.667 0.246397 0 0
 1424.54 559.506 1301.37 57.1636 -64.3192 23.4692 179.988 -179.996 -179.2 179.918 -179.992 -178.934 0.904658 -0.0254215 1.3328 2.77084 -0.00423734 1.06624 173.414 -179.969 -179.735 161.681 -164.5 179.895 173.493 -150.041 175.831 1.04203 -9.11485 2.14949 140.439 -163.055 -116.154 150.13 -129.968 156.37 -0 17.6472 -33.5374 31.6485 -9.49862 7.59529 -0 41.8519 0 -0 15.7635 0 -0 -10.8825 50.6761 -0 0 45.2225 -0 0 89.7884 -0 -5.68623 48.7475 -0 0 49.7017 -0 0 70.0928 -0 16.7426 48.1632 -0 0 46.1032 -0 0 88.4166 -0 13.2081 49.8312 -0 0 36.7915 -0 0 55.9182 177.949 -165.176 -176.697 15.1384 -22.5395 -8.79184 138.005 132.316 -146.311 -0 -13.0918 46.3484 41.4452 15.1381 -15.8714 -0 -1.57222 -0 -0 7.45691 0 -0 15.9713 -38.8032 -0 0 -23.9629 -0 0 -2.32236 -0 5.27817 -38.5406 -0 0 -0.186383 -0 0 -14.049 -0 -10.026 -24.1673 -0 0 -4.00422 -0 0 -34.1537 -0 -15.4695 -30.4627 -0 0 -7.90819 -0 0 3.62341 42.5737 16.5273 -27.2563 124.943 -176.604 176.002 133.976 -179.68 -168.333 0.134946 0 0 69.9802 44.7711 -3.73851 126.582 155.043 160.777 140.178 179.997 165.664 0.246781 0 0
